[Header]
FileType HTR
DataType HTRS
FileVersion 1
NumSegments 48
NumFrames 3
DataFrameRate 30
EulerRotationOrder ZYX
CalibrationUnits mm
RotationUnits Degrees
GlobalAxisofGravity Y
BoneLengthAxis Y
ScaleFactor 1.0
[SegmentNames&Hierarchy]
Wolf	GLOBAL
Becken	Wolf
Bauch	Becken
Bauch_001	Bauch
Brust	Bauch_001
Hals	Brust
Kopf_002	Hals
Kopf	Kopf_002
Unterkiefer	Kopf
Hals_fett	Unterkiefer
Maulunten	Unterkiefer
Mauloben	Kopf
MundW_L	Kopf
MundW_R	Kopf
Augen_con	Kopf
IK_Aug_R	Augen_con
IK_Aug_L	Augen_con
Aug_R	Kopf
aug_L	Kopf
Ohr_L	Kopf
Ohr_R	Kopf
Braun_O_L	Kopf
Braun_O_R	Kopf
aug_lied_O_L	Kopf
aug_lied_O_R	Kopf
aug_lied_U_L	Kopf
aug_lied_U_R	Kopf
Bauch_003	Brust
Schalterplatte_L	Bauch_003
Oberarm_L	Schalterplatte_L
Unterarm_L	Oberarm_L
Vorderpfote_L	Unterarm_L
Schalterplatte_R	Bauch_003
Oberarm_R	Schalterplatte_R
Unterarm_R	Oberarm_R
Vorderpfote_R	Unterarm_R
Schwanz	Becken
Schwanz_001	Schwanz
Schwanz_002	Schwanz_001
Schwanz_003	Schwanz_002
Oberschenkel_L	Becken
Unterschenkel_L	Oberschenkel_L
Pfote1_L	Unterschenkel_L
Pfote2_L	Pfote1_L
Oberschenkel_R	Becken
Unterschenkel_R	Oberschenkel_R
Pfote1_R	Unterschenkel_R
Pfote2_R	Pfote1_R
[BasePosition]
Wolf	0	0	0	0	0	0	1
Becken	0	0	0	0	0	0	1
Bauch	0	0	0	0	0	0	1
Bauch_001	0	0	0	0	0	0	1
Brust	0	0	0	0	0	0	1
Hals	0	0	0	0	0	0	1
Kopf_002	0	0	0	0	0	0	1
Kopf	0	0	0	0	0	0	1
Unterkiefer	0	0	0	0	0	0	1
Hals_fett	0	0	0	0	0	0	1
Maulunten	0	0	0	0	0	0	1
Mauloben	0	0	0	0	0	0	1
MundW_L	0	0	0	0	0	0	1
MundW_R	0	0	0	0	0	0	1
Augen_con	0	0	0	0	0	0	1
IK_Aug_R	0	0	0	0	0	0	1
IK_Aug_L	0	0	0	0	0	0	1
Aug_R	0	0	0	0	0	0	1
aug_L	0	0	0	0	0	0	1
Ohr_L	0	0	0	0	0	0	1
Ohr_R	0	0	0	0	0	0	1
Braun_O_L	0	0	0	0	0	0	1
Braun_O_R	0	0	0	0	0	0	1
aug_lied_O_L	0	0	0	0	0	0	1
aug_lied_O_R	0	0	0	0	0	0	1
aug_lied_U_L	0	0	0	0	0	0	1
aug_lied_U_R	0	0	0	0	0	0	1
Bauch_003	0	0	0	0	0	0	1
Schalterplatte_L	0	0	0	0	0	0	1
Oberarm_L	0	0	0	0	0	0	1
Unterarm_L	0	0	0	0	0	0	1
Vorderpfote_L	0	0	0	0	0	0	1
Schalterplatte_R	0	0	0	0	0	0	1
Oberarm_R	0	0	0	0	0	0	1
Unterarm_R	0	0	0	0	0	0	1
Vorderpfote_R	0	0	0	0	0	0	1
Schwanz	0	0	0	0	0	0	1
Schwanz_001	0	0	0	0	0	0	1
Schwanz_002	0	0	0	0	0	0	1
Schwanz_003	0	0	0	0	0	0	1
Oberschenkel_L	0	0	0	0	0	0	1
Unterschenkel_L	0	0	0	0	0	0	1
Pfote1_L	0	0	0	0	0	0	1
Pfote2_L	0	0	0	0	0	0	1
Oberschenkel_R	0	0	0	0	0	0	1
Unterschenkel_R	0	0	0	0	0	0	1
Pfote1_R	0	0	0	0	0	0	1
Pfote2_R	0	0	0	0	0	0	1
[Wolf]
37	0	0	0	-90	-0	0	1.0
38	0	0	0	-90	-0	0	1.0
39	0	0	0	-90	-0	0	1.0
[Becken]
37	0	0.3112420142	-0.2200118452	-2.067962885	164.4212189	89.26520538	1.0
38	0	0.3118880391	-0.2211257815	-2.067962885	164.4212189	89.26520538	1.0
39	0	0.3148239851	-0.2261977643	-2.067962885	164.4212189	89.26520538	1.0
[Bauch]
37	0.9984878302	-0.00741992658	-0.150611341	-6.458931239e-07	12.60522842	-8.201818247e-08	1.0
38	0.9984878302	-0.00741992658	-0.150611341	-6.458931239e-07	12.60522842	-8.201818247e-08	1.0
39	0.9984878302	-0.00741992658	-0.150611341	-6.458931239e-07	12.60522842	-8.201818247e-08	1.0
[Bauch_001]
37	1.071342349	0.006600080058	-0.1893585622	-1.568805601e-07	2.360082865	-2.503413654e-08	1.0
38	1.071342349	0.006600080058	-0.1893585622	-1.568805601e-07	2.360082865	-2.503413654e-08	1.0
39	1.071342349	0.006600080058	-0.1893585622	-1.568805601e-07	2.360082865	-2.503413654e-08	1.0
[Brust]
37	1.41907382	-0.01381989196	0.3623858392	3.618613846e-06	10.7627573	-4.096809789e-05	1.0
38	1.41907382	-0.01381989196	0.3623858392	3.618613846e-06	10.7627573	-4.096809789e-05	1.0
39	1.41907382	-0.01381989196	0.3623858392	3.618613846e-06	10.7627573	-4.096809789e-05	1.0
[Hals]
37	1.1844244	-0.01484991144	1.02827692	-4.51789947e-06	46.87745285	-2.16624926e-06	1.0
38	1.1844244	-0.01484991144	1.02827692	-4.51789947e-06	46.87745285	-2.16624926e-06	1.0
39	1.1844244	-0.01484991144	1.02827692	-4.51789947e-06	46.87745285	-2.16624926e-06	1.0
[Kopf_002]
37	1.75259161	3.012944944e-05	0.2651725411	0.006653842982	-165.1497192	0.002556535648	1.0
38	1.75259161	3.012944944e-05	0.2651725411	0.006653842982	-165.1497192	0.002556535648	1.0
39	1.75259161	3.012944944e-05	0.2651725411	0.006653842982	-165.1497192	0.002556535648	1.0
[Kopf]
37	1.015781879	8.032657206e-08	9.111317922e-08	0.06872025877	123.2280426	-0.02605217695	1.0
38	1.015781879	8.032657206e-08	9.111317922e-08	0.06872025877	123.2280426	-0.02605217695	1.0
39	1.015781879	8.032657206e-08	9.111317922e-08	0.06872025877	123.2280426	-0.02605217695	1.0
[Unterkiefer]
37	0.6370437145	0.004552738741	0.4060620368	5.412721157	-68.3888092	-3.09354353	1.0
38	0.6370437145	0.004552738741	0.4060620368	5.412721157	-68.3888092	-3.09354353	1.0
39	0.6370437145	0.004552738741	0.4060620368	5.412721157	-68.3888092	-3.09354353	1.0
[Hals_fett]
37	0.2998299599	0.007747137919	0.1206380203	-5.071650982	-59.35961533	5.585566998	1.0
38	0.2998299599	0.007747137919	0.1206380203	-5.071650982	-59.35961533	5.585566998	1.0
39	0.2998299599	0.007747137919	0.1206380203	-5.071650982	-59.35961533	5.585566998	1.0
[Maulunten]
37	0.08317943662	-0.007747350261	-0.1206459776	-3.32220912	38.97271347	-0.871876061	1.0
38	0.08317943662	-0.007747350261	-0.1206459776	-3.32220912	38.97271347	-0.871876061	1.0
39	0.08317943662	-0.007747350261	-0.1206459776	-3.32220912	38.97271347	-0.871876061	1.0
[Mauloben]
37	0.910148263	0.0004056794569	0.4003701806	-0.1032674983	-28.77768707	0.03543139994	1.0
38	0.910148263	0.0004056794569	0.4003701806	-0.1032674983	-28.77768707	0.03543139994	1.0
39	0.910148263	0.0004056794569	0.4003701806	-0.1032674983	-28.77768707	0.03543139994	1.0
[MundW_L]
37	0.673060894	-0.3618556261	0.3751286268	-179.8370972	-17.94884872	24.71397209	1.0
38	0.673060894	-0.3618556261	0.3751286268	-179.8370972	-17.94884872	24.71397209	1.0
39	0.673060894	-0.3618556261	0.3751286268	-179.8370972	-17.94884872	24.71397209	1.0
[MundW_R]
37	0.6732318401	0.3627035022	0.37398085	179.6653442	-18.02427101	-24.69083977	1.0
38	0.6732318401	0.3627035022	0.37398085	179.6653442	-18.02427101	-24.69083977	1.0
39	0.6732318401	0.3627035022	0.37398085	179.6653442	-18.02427101	-24.69083977	1.0
[Augen_con]
37	1.807372689	-0.0001604028512	0.1835819334	0.09822253883	157.1545258	0.02385936864	1.0
38	1.807372689	-0.0001604028512	0.1835819334	0.09822253883	157.1545258	0.02385936864	1.0
39	1.807372689	-0.0001604028512	0.1835819334	0.09822253883	157.1545258	0.02385936864	1.0
[IK_Aug_R]
37	0.3461304307	0.2943200469	-8.032657206e-08	-0.4194762409	-4.963055134	165.6946411	1.0
38	0.3461304307	0.2943200469	-8.032657206e-08	-0.4194762409	-4.963055134	165.6946411	1.0
39	0.3461304307	0.2943200469	-8.032657206e-08	-0.4194762409	-4.963055134	165.6946411	1.0
[IK_Aug_L]
37	0.3461307883	-0.2943199575	-1.629814861e-08	0.4194769561	-4.963055134	-165.6946411	1.0
38	0.3461307883	-0.2943199575	-1.629814861e-08	0.4194769561	-4.963055134	-165.6946411	1.0
39	0.3461307883	-0.2943199575	-1.629814861e-08	0.4194769561	-4.963055134	-165.6946411	1.0
[Aug_R]
37	1.0351547	0.2207805812	-0.09605748951	176.004776	-17.29163933	12.85548019	1.0
38	1.0351547	0.2207805812	-0.09605748951	176.004776	-17.29163933	12.85548019	1.0
39	1.0351547	0.2207805812	-0.09605748951	176.004776	-17.29163933	12.85548019	1.0
[aug_L]
37	1.035044074	-0.2215988934	-0.09535883367	-176.1891022	-17.33178139	-12.83103275	1.0
38	1.035044074	-0.2215988934	-0.09535883367	-176.1891022	-17.33178139	-12.83103275	1.0
39	1.035044074	-0.2215988934	-0.09535883367	-176.1891022	-17.33178139	-12.83103275	1.0
[Ohr_L]
37	0.6407760978	-0.3659991622	-0.6893320084	-24.34924507	53.07766342	-15.02013397	1.0
38	0.6407760978	-0.3659991622	-0.6893320084	-24.34924507	53.07766342	-15.02013397	1.0
39	0.6407760978	-0.3659991622	-0.6893320084	-24.34924507	53.07766342	-15.02013397	1.0
[Ohr_R]
37	0.6409583092	0.3634999394	-0.6904845238	24.05786133	53.12416077	14.75857162	1.0
38	0.6409583092	0.3634999394	-0.6904845238	24.05786133	53.12416077	14.75857162	1.0
39	0.6409583092	0.3634999394	-0.6904845238	24.05786133	53.12416077	14.75857162	1.0
[Braun_O_L]
37	0.9801794291	-0.3706048727	-0.3292538524	-143.3172302	-34.69635391	52.39493942	1.0
38	0.9801794291	-0.3706048727	-0.3292538524	-143.3172302	-34.69635391	52.39493942	1.0
39	0.9801794291	-0.3706048727	-0.3292538524	-143.3172302	-34.69635391	52.39493942	1.0
[Braun_O_R]
37	0.9803634882	0.3690741956	-0.3304223716	143.1826782	-34.83971786	-52.3467598	1.0
38	0.9803634882	0.3690741956	-0.3304223716	143.1826782	-34.83971786	-52.3467598	1.0
39	0.9803634882	0.3690741956	-0.3304223716	143.1826782	-34.83971786	-52.3467598	1.0
[aug_lied_O_L]
37	1.038881421	-0.3271433711	-0.1608108282	-175.8613434	-20.15596199	60.31666946	1.0
38	1.038881421	-0.3271433711	-0.1608108282	-175.8613434	-20.15596199	60.31666946	1.0
39	1.038881421	-0.3271433711	-0.1608108282	-175.8613434	-20.15596199	60.31666946	1.0
[aug_lied_O_R]
37	1.039044261	0.3261157274	-0.1618429124	175.7657928	-20.31323814	-60.31218338	1.0
38	1.039044261	0.3261157274	-0.1618429124	175.7657928	-20.31323814	-60.31218338	1.0
39	1.039044261	0.3261157274	-0.1618429124	175.7657928	-20.31323814	-60.31218338	1.0
[aug_lied_U_L]
37	1.021915555	-0.3312865496	-0.1338484734	-159.8099365	-28.7482872	60.17461395	1.0
38	1.021915555	-0.3312865496	-0.1338484734	-159.8099365	-28.7482872	60.17461395	1.0
39	1.021915555	-0.3312865496	-0.1338484734	-159.8099365	-28.7482872	60.17461395	1.0
[aug_lied_U_R]
37	1.02207756	0.3303526342	-0.1348843277	159.7071381	-28.90532684	-60.15359116	1.0
38	1.02207756	0.3303526342	-0.1348843277	159.7071381	-28.90532684	-60.15359116	1.0
39	1.02207756	0.3303526342	-0.1348843277	159.7071381	-28.90532684	-60.15359116	1.0
[Bauch_003]
37	1.444672227	0.03385011479	-1.56629622	-3.870021374e-06	-137.6799469	1.039222207e-05	1.0
38	1.444672227	0.03385011479	-1.56629622	-3.870021374e-06	-137.6799469	1.039222207e-05	1.0
39	1.444672227	0.03385011479	-1.56629622	-3.870021374e-06	-137.6799469	1.039222207e-05	1.0
[Schalterplatte_L]
37	0.8931547403	-0.3829551339	0.002920657862	-105.3832474	68.37648773	-138.7188568	1.0
38	0.8957004547	-0.382650435	-0.007251854055	-106.0742798	67.28040314	-139.6109314	1.0
39	0.9009513855	-0.3823456764	-0.01692107134	-106.2212067	66.39849091	-139.8133545	1.0
[Oberarm_L]
37	1.418636918	9.313225746e-08	1.303851604e-07	-132.2122345	-50.54195404	160.719696	1.0
38	1.418636918	9.313225746e-08	1.303851604e-07	-131.1447296	-51.35738373	159.5885925	1.0
39	1.418636918	9.313225746e-08	1.303851604e-07	-129.4308319	-52.70512772	157.5724792	1.0
[Unterarm_L]
37	2.028227806	1.885928214e-07	1.862644972e-08	43.95477676	75.24985504	48.45465469	1.0
38	2.028227806	1.885928214e-07	1.862644972e-08	50.60166931	76.30496216	55.32437897	1.0
39	2.028227806	1.885928214e-07	1.862644972e-08	58.37645721	77.33938599	63.22491455	1.0
[Vorderpfote_L]
37	1.705947399	2.607703209e-07	2.305023372e-07	-27.94555664	-12.5367775	-4.223540306	1.0
38	1.705947399	2.607703209e-07	2.305023372e-07	-29.41091347	-13.25767708	-2.914012194	1.0
39	1.705947399	2.607703209e-07	2.305023372e-07	-30.79941177	-13.0008707	-1.632117271	1.0
[Schalterplatte_R]
37	0.8938572407	0.3830575943	-0.002590098884	16.94077873	74.86834717	46.17869568	1.0
38	0.8932057023	0.3830991983	0.008451567963	14.93883133	74.18675232	44.15662384	1.0
39	0.897941649	0.3842155635	0.02079945803	13.39738178	73.61543274	42.61830139	1.0
[Oberarm_R]
37	1.418636441	2.235174179e-07	1.490116119e-07	76.91385651	-60.61019897	-92.50398254	1.0
38	1.418636441	2.235174179e-07	1.490116119e-07	77.61782074	-60.66210556	-93.2871933	1.0
39	1.418636441	2.235174179e-07	1.490116119e-07	78.46657562	-60.71509171	-94.24914551	1.0
[Unterarm_R]
37	2.028232098	1.350417733e-07	-7.450580597e-08	-4.774973392	58.60385895	-5.052855492	1.0
38	2.028232098	1.350417733e-07	-7.450580597e-08	-4.650052547	57.78888702	-4.933431149	1.0
39	2.028232098	1.350417733e-07	-7.450580597e-08	-4.587733269	57.2184639	-4.876776218	1.0
[Vorderpfote_R]
37	1.705937624	9.313230187e-09	7.101335342e-08	-0.7139534354	93.74968719	-1.05253768	1.0
38	1.705937624	9.313230187e-09	7.101335342e-08	-0.8006991148	93.5585556	-1.140409589	1.0
39	1.705937624	9.313230187e-09	7.101335342e-08	-0.8013481498	93.44890594	-1.141870975	1.0
[Schwanz]
37	-0.08818969131	-1.338776023e-08	0.05867222324	0.00146063068	-121.0583344	-0.003929872066	1.0
38	-0.0888523832	-1.338776023e-08	0.059044756	0.003572475398	-121.0979614	-0.00956654083	1.0
39	-0.0918687433	-1.338776023e-08	0.06113316864	0.01296852063	-121.2780762	-0.03499951586	1.0
[Schwanz_001]
37	0.9104326963	6.926712359e-08	1.564329999e-09	-0.6654836535	-7.341889858	0.6270318031	1.0
38	0.9104326963	6.926712359e-08	1.564329999e-09	-0.6644353271	-7.387668133	0.6257454753	1.0
39	0.9104326963	6.926712359e-08	1.564329999e-09	-0.6596440673	-7.595762253	0.6198800206	1.0
[Schwanz_002]
37	0.7855662704	6.053597446e-08	1.369335223e-07	-0.4024404883	-14.98372364	0.3111325502	1.0
38	0.7855662704	6.053597446e-08	1.369335223e-07	-0.3996032476	-14.96131992	0.308906287	1.0
39	0.7855662704	6.053597446e-08	1.369335223e-07	-0.386810869	-14.86011505	0.2988781631	1.0
[Schwanz_003]
37	0.8350353241	6.286426668e-08	8.163624443e-08	0.4266736507	11.72583008	-0.33268255	1.0
38	0.8350353241	6.286426668e-08	8.163624443e-08	0.419844389	11.42041683	-0.3258777559	1.0
39	0.8350353241	6.286426668e-08	8.163624443e-08	0.3880517185	10.02687359	-0.2941934466	1.0
[Oberschenkel_L]
37	0.7383759022	-0.5837000012	0.07801958174	14.57235432	-59.0185585	-9.029395103	1.0
38	0.7357695699	-0.5837000012	0.07832523435	15.49026299	-61.80405426	-10.08376408	1.0
39	0.7259749174	-0.5837000012	0.08026184142	16.35645103	-64.02380371	-11.05787563	1.0
[Unterschenkel_L]
37	1.686438918	1.136706089e-07	3.438727303e-09	-103.2025146	-77.01960754	111.5357056	1.0
38	1.686438918	1.132467347e-07	3.534247561e-09	-95.03346252	-77.455513	103.2802734	1.0
39	1.686438918	1.128228604e-07	3.62976782e-09	-88.83393097	-77.63684845	97.00027466	1.0
[Pfote1_L]
37	1.190900326	1.510175451e-07	-1.137288166e-07	-3.289552212	67.30390167	-12.84124565	1.0
38	1.190900326	1.515906547e-07	-1.122960143e-07	-3.086175919	66.81139374	-12.62010574	1.0
39	1.190900326	1.521637785e-07	-1.108632048e-07	-2.597299814	65.50457001	-12.08394909	1.0
[Pfote2_L]
37	0.9876255989	1.086781793e-07	-5.330030461e-08	27.78465843	102.5764236	22.40336609	1.0
38	0.9876254797	1.069110596e-07	-5.167646222e-08	25.28803825	103.32061	19.9514389	1.0
39	0.9876254797	1.051439256e-07	-5.005261983e-08	23.45256042	104.0694656	18.12838173	1.0
[Oberschenkel_R]
37	0.5019677281	0.5837000608	-0.07915091515	-11.01423931	-37.7299118	4.359530449	1.0
38	0.515111506	0.5837000608	-0.08106846362	-10.82699871	-35.5102005	4.046384335	1.0
39	0.530584991	0.5837000608	-0.07841943949	-10.68053246	-33.58958054	3.789036989	1.0
[Unterschenkel_R]
37	1.686449051	1.11758709e-07	3.725289943e-08	-39.61219788	-121.1783218	20.76404381	1.0
38	1.686449051	1.11758709e-07	3.725289943e-08	-38.9737854	-121.7663651	19.89818192	1.0
39	1.686449051	1.11758709e-07	3.725289943e-08	-38.60781097	-122.0031509	19.43903351	1.0
[Pfote1_R]
37	1.190900326	2.176966518e-07	1.11758709e-07	-2.889223576	44.68520355	4.932342529	1.0
38	1.190900326	2.176966518e-07	1.11758709e-07	-2.977577686	45.79434586	4.808038712	1.0
39	1.190900326	2.176966518e-07	1.11758709e-07	-3.073036194	46.92431259	4.676238537	1.0
[Pfote2_R]
37	0.9876256585	1.024454832e-07	-4.656610209e-09	-46.43476105	106.8850937	-33.85274506	1.0
38	0.9876256585	1.024454832e-07	-4.656610209e-09	-48.61816025	106.6414108	-35.91154099	1.0
39	0.9876256585	1.024454832e-07	-4.656610209e-09	-50.83151245	106.2568665	-38.05733871	1.0
[EndOfFile]
